<mxfile host="app.diagrams.net" modified="2021-09-23T08:05:34.512Z" agent="5.0 (Windows NT 10.0; Win64; x64) AppleWebKit/537.36 (KHTML, like Gecko) Chrome/92.0.4515.159 Safari/537.36" etag="215UemRDw4doRAwN53VX" version="15.3.0" type="github">
  <diagram id="AMxvm4D1RG54aZKchDNL" name="第 1 页">
    <mxGraphModel dx="1422" dy="772" grid="1" gridSize="10" guides="1" tooltips="1" connect="1" arrows="1" fold="1" page="1" pageScale="1" pageWidth="827" pageHeight="1169" math="0" shadow="0">
      <root>
        <mxCell id="0" />
        <mxCell id="1" parent="0" />
        <mxCell id="Szsei6VpVsXjJuMiybBL-6" style="edgeStyle=orthogonalEdgeStyle;rounded=0;orthogonalLoop=1;jettySize=auto;html=1;exitX=0.5;exitY=1;exitDx=0;exitDy=0;entryX=0.5;entryY=0;entryDx=0;entryDy=0;" edge="1" parent="1" source="Szsei6VpVsXjJuMiybBL-1" target="Szsei6VpVsXjJuMiybBL-3">
          <mxGeometry relative="1" as="geometry" />
        </mxCell>
        <mxCell id="Szsei6VpVsXjJuMiybBL-25" style="edgeStyle=orthogonalEdgeStyle;rounded=0;orthogonalLoop=1;jettySize=auto;html=1;exitX=1;exitY=0.75;exitDx=0;exitDy=0;entryX=1;entryY=0.25;entryDx=0;entryDy=0;" edge="1" parent="1" source="Szsei6VpVsXjJuMiybBL-1" target="Szsei6VpVsXjJuMiybBL-3">
          <mxGeometry relative="1" as="geometry" />
        </mxCell>
        <mxCell id="Szsei6VpVsXjJuMiybBL-1" value="启动类加载器&lt;br&gt;Bootstrap ClassLoader" style="rounded=1;whiteSpace=wrap;html=1;fillColor=#dae8fc;strokeColor=#6c8ebf;" vertex="1" parent="1">
          <mxGeometry x="110" y="90" width="160" height="60" as="geometry" />
        </mxCell>
        <mxCell id="Szsei6VpVsXjJuMiybBL-2" value="类加载器" style="text;html=1;strokeColor=none;fillColor=none;align=center;verticalAlign=middle;whiteSpace=wrap;rounded=0;" vertex="1" parent="1">
          <mxGeometry x="90" y="50" width="90" height="20" as="geometry" />
        </mxCell>
        <mxCell id="Szsei6VpVsXjJuMiybBL-7" style="edgeStyle=orthogonalEdgeStyle;rounded=0;orthogonalLoop=1;jettySize=auto;html=1;exitX=0.5;exitY=1;exitDx=0;exitDy=0;entryX=0.5;entryY=0;entryDx=0;entryDy=0;" edge="1" parent="1" source="Szsei6VpVsXjJuMiybBL-3" target="Szsei6VpVsXjJuMiybBL-4">
          <mxGeometry relative="1" as="geometry" />
        </mxCell>
        <mxCell id="Szsei6VpVsXjJuMiybBL-12" style="edgeStyle=orthogonalEdgeStyle;rounded=0;orthogonalLoop=1;jettySize=auto;html=1;exitX=1;exitY=0.5;exitDx=0;exitDy=0;entryX=0;entryY=0.5;entryDx=0;entryDy=0;" edge="1" parent="1" source="Szsei6VpVsXjJuMiybBL-3" target="Szsei6VpVsXjJuMiybBL-11">
          <mxGeometry relative="1" as="geometry" />
        </mxCell>
        <mxCell id="Szsei6VpVsXjJuMiybBL-22" style="edgeStyle=orthogonalEdgeStyle;rounded=0;orthogonalLoop=1;jettySize=auto;html=1;exitX=0;exitY=0.25;exitDx=0;exitDy=0;entryX=0;entryY=0.5;entryDx=0;entryDy=0;" edge="1" parent="1" source="Szsei6VpVsXjJuMiybBL-3" target="Szsei6VpVsXjJuMiybBL-1">
          <mxGeometry relative="1" as="geometry" />
        </mxCell>
        <mxCell id="Szsei6VpVsXjJuMiybBL-27" style="edgeStyle=orthogonalEdgeStyle;rounded=0;orthogonalLoop=1;jettySize=auto;html=1;exitX=1;exitY=0.75;exitDx=0;exitDy=0;entryX=1;entryY=0.25;entryDx=0;entryDy=0;" edge="1" parent="1" source="Szsei6VpVsXjJuMiybBL-3" target="Szsei6VpVsXjJuMiybBL-4">
          <mxGeometry relative="1" as="geometry" />
        </mxCell>
        <mxCell id="Szsei6VpVsXjJuMiybBL-3" value="扩展类加载器&lt;br&gt;Extension ClassLoader" style="rounded=1;whiteSpace=wrap;html=1;fillColor=#d5e8d4;strokeColor=#82b366;" vertex="1" parent="1">
          <mxGeometry x="110" y="180" width="160" height="60" as="geometry" />
        </mxCell>
        <mxCell id="Szsei6VpVsXjJuMiybBL-8" style="edgeStyle=orthogonalEdgeStyle;rounded=0;orthogonalLoop=1;jettySize=auto;html=1;exitX=0.5;exitY=1;exitDx=0;exitDy=0;entryX=0.5;entryY=0;entryDx=0;entryDy=0;" edge="1" parent="1" source="Szsei6VpVsXjJuMiybBL-4" target="Szsei6VpVsXjJuMiybBL-5">
          <mxGeometry relative="1" as="geometry" />
        </mxCell>
        <mxCell id="Szsei6VpVsXjJuMiybBL-15" style="edgeStyle=orthogonalEdgeStyle;rounded=0;orthogonalLoop=1;jettySize=auto;html=1;exitX=1;exitY=0.5;exitDx=0;exitDy=0;entryX=0;entryY=0.25;entryDx=0;entryDy=0;" edge="1" parent="1" source="Szsei6VpVsXjJuMiybBL-4" target="Szsei6VpVsXjJuMiybBL-14">
          <mxGeometry relative="1" as="geometry" />
        </mxCell>
        <mxCell id="Szsei6VpVsXjJuMiybBL-19" style="edgeStyle=orthogonalEdgeStyle;rounded=0;orthogonalLoop=1;jettySize=auto;html=1;exitX=0;exitY=0.5;exitDx=0;exitDy=0;entryX=0;entryY=0.5;entryDx=0;entryDy=0;" edge="1" parent="1" source="Szsei6VpVsXjJuMiybBL-4" target="Szsei6VpVsXjJuMiybBL-3">
          <mxGeometry relative="1" as="geometry" />
        </mxCell>
        <mxCell id="Szsei6VpVsXjJuMiybBL-4" value="应用类加载器&lt;br&gt;Application ClassLoader" style="rounded=1;whiteSpace=wrap;html=1;fillColor=#ffe6cc;strokeColor=#d79b00;" vertex="1" parent="1">
          <mxGeometry x="110" y="270" width="160" height="60" as="geometry" />
        </mxCell>
        <mxCell id="Szsei6VpVsXjJuMiybBL-17" style="edgeStyle=orthogonalEdgeStyle;rounded=0;orthogonalLoop=1;jettySize=auto;html=1;exitX=1;exitY=0.5;exitDx=0;exitDy=0;" edge="1" parent="1" source="Szsei6VpVsXjJuMiybBL-5" target="Szsei6VpVsXjJuMiybBL-16">
          <mxGeometry relative="1" as="geometry" />
        </mxCell>
        <mxCell id="Szsei6VpVsXjJuMiybBL-5" value="自定义类加载器&lt;br&gt;Custom ClassLoader" style="rounded=1;whiteSpace=wrap;html=1;fillColor=#fff2cc;strokeColor=#d6b656;" vertex="1" parent="1">
          <mxGeometry x="110" y="360" width="160" height="60" as="geometry" />
        </mxCell>
        <mxCell id="Szsei6VpVsXjJuMiybBL-9" value="&lt;b&gt;&lt;font style=&quot;font-size: 14px&quot;&gt;加载java安装目录lib类库&lt;/font&gt;&lt;/b&gt;" style="text;html=1;strokeColor=none;fillColor=none;align=center;verticalAlign=middle;whiteSpace=wrap;rounded=0;" vertex="1" parent="1">
          <mxGeometry x="360" y="115" width="160" height="10" as="geometry" />
        </mxCell>
        <mxCell id="Szsei6VpVsXjJuMiybBL-10" value="" style="edgeStyle=orthogonalEdgeStyle;rounded=0;orthogonalLoop=1;jettySize=auto;html=1;" edge="1" parent="1" source="Szsei6VpVsXjJuMiybBL-1" target="Szsei6VpVsXjJuMiybBL-9">
          <mxGeometry relative="1" as="geometry" />
        </mxCell>
        <mxCell id="Szsei6VpVsXjJuMiybBL-11" value="&lt;b&gt;&lt;font style=&quot;font-size: 14px&quot;&gt;加载java安装目录lib/ext类库&lt;/font&gt;&lt;/b&gt;" style="text;html=1;strokeColor=none;fillColor=none;align=center;verticalAlign=middle;whiteSpace=wrap;rounded=0;" vertex="1" parent="1">
          <mxGeometry x="360" y="205" width="190" height="10" as="geometry" />
        </mxCell>
        <mxCell id="Szsei6VpVsXjJuMiybBL-14" value="&lt;b&gt;&lt;font style=&quot;font-size: 14px&quot;&gt;加载classpath下的java类（业务类）&lt;/font&gt;&lt;/b&gt;" style="text;html=1;strokeColor=none;fillColor=none;align=center;verticalAlign=middle;whiteSpace=wrap;rounded=0;" vertex="1" parent="1">
          <mxGeometry x="360" y="295" width="240" height="10" as="geometry" />
        </mxCell>
        <mxCell id="Szsei6VpVsXjJuMiybBL-16" value="&lt;b&gt;&lt;font style=&quot;font-size: 14px&quot;&gt;根据自定义规则去加载类&lt;/font&gt;&lt;/b&gt;" style="text;html=1;strokeColor=none;fillColor=none;align=center;verticalAlign=middle;whiteSpace=wrap;rounded=0;" vertex="1" parent="1">
          <mxGeometry x="360" y="385" width="160" height="10" as="geometry" />
        </mxCell>
        <mxCell id="Szsei6VpVsXjJuMiybBL-23" value="能帮我加载这个类吗？" style="text;html=1;strokeColor=none;fillColor=none;align=center;verticalAlign=middle;whiteSpace=wrap;rounded=0;" vertex="1" parent="1">
          <mxGeometry x="20" y="230" width="70" height="40" as="geometry" />
        </mxCell>
        <mxCell id="Szsei6VpVsXjJuMiybBL-24" value="能帮我加载这个类吗？" style="text;html=1;strokeColor=none;fillColor=none;align=center;verticalAlign=middle;whiteSpace=wrap;rounded=0;" vertex="1" parent="1">
          <mxGeometry x="20" y="140" width="70" height="40" as="geometry" />
        </mxCell>
        <mxCell id="Szsei6VpVsXjJuMiybBL-26" value="我加载不了，我负责的目录下没有这类" style="text;html=1;strokeColor=none;fillColor=none;align=center;verticalAlign=middle;whiteSpace=wrap;rounded=0;" vertex="1" parent="1">
          <mxGeometry x="300" y="150" width="120" height="20" as="geometry" />
        </mxCell>
        <mxCell id="Szsei6VpVsXjJuMiybBL-28" value="我加载不了，我负责的目录下没有这类" style="text;html=1;strokeColor=none;fillColor=none;align=center;verticalAlign=middle;whiteSpace=wrap;rounded=0;" vertex="1" parent="1">
          <mxGeometry x="294" y="250" width="120" height="20" as="geometry" />
        </mxCell>
        <mxCell id="Szsei6VpVsXjJuMiybBL-29" value="自己加载" style="text;html=1;strokeColor=none;fillColor=none;align=center;verticalAlign=middle;whiteSpace=wrap;rounded=0;" vertex="1" parent="1">
          <mxGeometry x="40" y="310" width="50" height="20" as="geometry" />
        </mxCell>
      </root>
    </mxGraphModel>
  </diagram>
</mxfile>
